<svg width="204" height="50" viewBox="0 0 204 50" fill="none" xmlns="http://www.w3.org/2000/svg">
<circle cx="25" cy="25" r="24.9585" fill="url(#paint0_linear_220_383)" stroke="url(#paint1_linear_220_383)" stroke-width="0.0829187"/>
<circle cx="24.9887" cy="24.9887" r="24.2839" fill="white" stroke="url(#paint2_linear_220_383)" stroke-width="0.0829187"/>
<circle cx="25" cy="25" r="23.7985" fill="white" stroke="url(#paint3_linear_220_383)" stroke-width="0.0812612"/>
<path fill-rule="evenodd" clip-rule="evenodd" d="M25.1798 12.0981L10.5517 20.5437C9.73866 21.0131 8.69906 20.7345 8.22967 19.9215C7.76027 19.1085 8.03883 18.0689 8.85185 17.5995L24.2191 8.72716C24.5217 8.5525 24.8556 8.4814 25.1798 8.50286C25.504 8.4814 25.8379 8.5525 26.1404 8.72716L41.5077 17.5995C42.3207 18.0689 42.5993 19.1085 42.1299 19.9215C41.6605 20.7345 40.6209 21.0131 39.8079 20.5437L25.1798 12.0981Z" fill="url(#paint4_linear_220_383)"/>
<path fill-rule="evenodd" clip-rule="evenodd" d="M9.86731 21.8743V37.6919C9.86731 39.2231 11.1086 40.4644 12.6398 40.4644H37.7771C39.3083 40.4644 40.5496 39.2231 40.5496 37.6919V21.8743C36.0421 19.2486 30.8009 17.7446 25.2084 17.7446C19.616 17.7446 14.3748 19.2487 9.86731 21.8743Z" fill="url(#paint5_linear_220_383)"/>
<rect x="21.87" y="23.3002" width="6.59174" height="18.325" rx="1.65837" fill="white"/>
<rect x="16.0033" y="35.7269" width="6.59174" height="18.325" rx="1.65837" transform="rotate(-90 16.0033 35.7269)" fill="white"/>
<path d="M71.5434 25.5902C71.3231 25.8105 71.0006 25.9757 70.5758 26.0858C70.1668 26.2117 69.6712 26.2746 69.0891 26.2746C68.507 26.2746 67.9564 26.1881 67.4372 26.015C66.918 25.842 66.4932 25.4251 66.1629 24.7643L63.8266 19.9974C63.5906 19.5097 63.3782 19.0534 63.1894 18.6286C63.0006 18.1881 62.7961 17.6847 62.5759 17.1183L62.4343 17.1419C62.4972 17.9915 62.5287 18.8568 62.5287 19.7378C62.5444 20.6188 62.5523 21.4841 62.5523 22.3336V25.9914C62.3792 26.0386 62.1118 26.0858 61.7499 26.133C61.4038 26.1802 61.0577 26.2038 60.7116 26.2038C60.3655 26.2038 60.0587 26.1802 59.7912 26.133C59.5238 26.0858 59.3035 25.9914 59.1305 25.8498C58.9574 25.7082 58.8237 25.5194 58.7293 25.2835C58.6349 25.0317 58.5877 24.7092 58.5877 24.3159V12.5166C58.8079 12.2019 59.1462 11.966 59.6024 11.8086C60.0587 11.6513 60.5464 11.5726 61.0656 11.5726C61.6477 11.5726 62.1983 11.667 62.7175 11.8558C63.2524 12.0289 63.6771 12.4379 63.9918 13.083L66.3517 17.8499C66.5876 18.3376 66.8 18.8017 66.9888 19.2422C67.1776 19.667 67.3821 20.1626 67.6024 20.7289L67.7204 20.7053C67.6574 19.8558 67.6181 19.0062 67.6024 18.1567C67.5866 17.3071 67.5788 16.4576 67.5788 15.608V11.785C67.7518 11.7378 68.0114 11.6906 68.3575 11.6434C68.7194 11.5962 69.0734 11.5726 69.4195 11.5726C70.1117 11.5726 70.6387 11.6985 71.0006 11.9502C71.3624 12.1862 71.5434 12.6896 71.5434 13.4605V25.5902ZM87.56 23.7495C87.56 24.2373 87.4735 24.5991 87.3004 24.8351C87.1274 25.0711 86.8521 25.2992 86.4745 25.5194C86.2542 25.6453 85.9789 25.7712 85.6485 25.897C85.3182 26.0072 84.9563 26.1015 84.563 26.1802C84.1697 26.2746 83.7528 26.3454 83.3123 26.3926C82.8875 26.4398 82.4627 26.4634 82.0379 26.4634C80.9052 26.4634 79.8433 26.3139 78.8521 26.015C77.861 25.7004 76.9957 25.2363 76.2563 24.6227C75.5326 23.9934 74.9583 23.2146 74.5336 22.2864C74.1088 21.3582 73.8964 20.2805 73.8964 19.0534C73.8964 17.7634 74.1245 16.6385 74.5808 15.6788C75.0527 14.7191 75.6663 13.9246 76.4215 13.2953C77.1923 12.6503 78.0655 12.1705 79.0409 11.8558C80.0321 11.5412 81.0468 11.3838 82.0851 11.3838C83.5797 11.3838 84.7597 11.6277 85.6249 12.1154C86.506 12.5874 86.9465 13.2088 86.9465 13.9797C86.9465 14.3887 86.8442 14.7427 86.6397 15.0416C86.4352 15.3406 86.1992 15.5765 85.9317 15.7496C85.5384 15.5136 85.0428 15.2855 84.445 15.0652C83.8629 14.8293 83.2021 14.7113 82.4627 14.7113C81.1412 14.7113 80.0871 15.0888 79.3005 15.844C78.5296 16.5992 78.1442 17.6454 78.1442 18.9826C78.1442 19.7063 78.2464 20.3356 78.4509 20.8705C78.6712 21.3897 78.9622 21.8223 79.3241 22.1684C79.6859 22.4988 80.1028 22.7505 80.5748 22.9236C81.0468 23.0809 81.5502 23.1596 82.0851 23.1596C82.4312 23.1596 82.738 23.1281 83.0055 23.0652C83.2729 23.0023 83.4775 22.9315 83.619 22.8528V20.6345H81.094C80.9996 20.4615 80.9052 20.2333 80.8108 19.9502C80.7321 19.667 80.6928 19.3681 80.6928 19.0534C80.6928 18.487 80.8187 18.078 81.0704 17.8263C81.3378 17.5746 81.6761 17.4487 82.0851 17.4487H86.0733C86.5453 17.4487 86.9071 17.5824 87.1588 17.8499C87.4263 18.1016 87.56 18.4634 87.56 18.9354V23.7495ZM93.55 12.2098C93.8175 12.0525 94.2187 11.903 94.7536 11.7614C95.3042 11.6198 95.8548 11.549 96.4055 11.549C97.1921 11.549 97.8843 11.667 98.4821 11.903C99.0957 12.1233 99.489 12.4773 99.6621 12.965C99.9453 13.783 100.252 14.7349 100.582 15.8204C100.913 16.9059 101.243 18.0308 101.574 19.195C101.904 20.3435 102.226 21.4841 102.541 22.6168C102.856 23.7338 103.131 24.725 103.367 25.5902C103.178 25.8105 102.895 25.9836 102.518 26.1094C102.14 26.251 101.692 26.3218 101.172 26.3218C100.795 26.3218 100.472 26.2903 100.205 26.2274C99.9531 26.1645 99.7407 26.0701 99.5677 25.9442C99.4104 25.8184 99.2766 25.6532 99.1665 25.4487C99.0721 25.2441 98.9856 25.0081 98.9069 24.7407L98.4821 23.1124H94.2108C94.0849 23.5844 93.9591 24.0721 93.8332 24.5755C93.7074 25.0789 93.5815 25.5666 93.4556 26.0386C93.2354 26.1173 92.9994 26.1802 92.7477 26.2274C92.5117 26.2903 92.2206 26.3218 91.8745 26.3218C91.0722 26.3218 90.4743 26.1881 90.081 25.9206C89.7034 25.6374 89.5147 25.252 89.5147 24.7643C89.5147 24.544 89.5461 24.3238 89.6091 24.1035C89.672 23.8833 89.7428 23.6237 89.8214 23.3248C89.9316 22.9 90.081 22.373 90.2698 21.7437C90.4743 21.1144 90.6946 20.4379 90.9306 19.7142C91.1666 18.9748 91.4183 18.2196 91.6857 17.4487C91.9532 16.6778 92.2049 15.9541 92.4409 15.2776C92.6769 14.5854 92.8893 13.9718 93.0781 13.4369C93.2826 12.902 93.4399 12.493 93.55 12.2098ZM96.3819 15.254C96.1616 15.9148 95.9099 16.6542 95.6267 17.4723C95.3593 18.2747 95.1154 19.0927 94.8952 19.9266H97.8214C97.6011 19.077 97.373 18.2511 97.137 17.4487C96.9168 16.6306 96.7123 15.8991 96.5235 15.254H96.3819ZM114.132 23.018C114.305 23.0495 114.517 23.0809 114.769 23.1124C115.02 23.1281 115.256 23.136 115.477 23.136C116.012 23.136 116.499 23.0573 116.94 22.9C117.396 22.7427 117.781 22.4988 118.096 22.1684C118.427 21.8381 118.678 21.4133 118.851 20.8941C119.04 20.3592 119.134 19.722 119.134 18.9826C119.134 17.5667 118.804 16.5048 118.143 15.7968C117.483 15.0731 116.602 14.7113 115.5 14.7113C115.28 14.7113 115.052 14.7191 114.816 14.7349C114.596 14.7506 114.368 14.7742 114.132 14.8057V23.018ZM115.453 26.4634C115.186 26.4634 114.879 26.4555 114.533 26.4398C114.187 26.4241 113.825 26.3926 113.447 26.3454C113.085 26.2982 112.716 26.2353 112.338 26.1566C111.976 26.0937 111.638 25.9993 111.323 25.8734C110.458 25.543 110.025 24.9688 110.025 24.1507V13.1302C110.025 12.7998 110.112 12.5481 110.285 12.375C110.474 12.1862 110.725 12.0367 111.04 11.9266C111.717 11.7064 112.432 11.5648 113.188 11.5018C113.943 11.4232 114.619 11.3838 115.217 11.3838C116.444 11.3838 117.553 11.5333 118.545 11.8322C119.551 12.1311 120.409 12.5952 121.117 13.2245C121.84 13.8381 122.399 14.6169 122.792 15.5608C123.186 16.5048 123.382 17.6218 123.382 18.9118C123.382 20.1704 123.193 21.2717 122.816 22.2156C122.438 23.1438 121.896 23.9305 121.188 24.5755C120.495 25.2048 119.662 25.6768 118.686 25.9914C117.711 26.3061 116.633 26.4634 115.453 26.4634ZM129.872 25.9914C129.699 26.0386 129.424 26.0858 129.046 26.133C128.684 26.1802 128.323 26.2038 127.961 26.2038C127.599 26.2038 127.276 26.1723 126.993 26.1094C126.726 26.0622 126.498 25.9678 126.309 25.8262C126.12 25.6846 125.978 25.488 125.884 25.2363C125.79 24.9845 125.742 24.6542 125.742 24.2451V11.785C125.916 11.7536 126.191 11.7142 126.568 11.667C126.946 11.6041 127.308 11.5726 127.654 11.5726C128.016 11.5726 128.33 11.6041 128.598 11.667C128.881 11.7142 129.117 11.8086 129.306 11.9502C129.495 12.0918 129.636 12.2885 129.731 12.5402C129.825 12.7919 129.872 13.1223 129.872 13.5313V25.9914ZM141.499 25.6138C141.279 25.8026 140.933 25.9678 140.461 26.1094C140.004 26.251 139.501 26.3218 138.95 26.3218C138.29 26.3218 137.723 26.2274 137.251 26.0386C136.779 25.8341 136.457 25.5588 136.284 25.2127C136.111 24.8508 135.898 24.3867 135.647 23.8203C135.395 23.2382 135.127 22.5932 134.844 21.8853C134.577 21.1773 134.294 20.43 133.995 19.6434C133.711 18.841 133.436 18.0308 133.169 17.2127C132.901 16.3946 132.65 15.5923 132.414 14.8057C132.178 14.019 131.973 13.2796 131.8 12.5874C132.02 12.3671 132.335 12.1705 132.744 11.9974C133.169 11.8086 133.617 11.7142 134.089 11.7142C134.671 11.7142 135.143 11.8401 135.505 12.0918C135.883 12.3278 136.158 12.7762 136.331 13.4369C136.756 14.9787 137.18 16.4576 137.605 17.8735C138.046 19.2737 138.502 20.7368 138.974 22.2628H139.116C139.54 20.784 139.973 19.1714 140.413 17.4251C140.87 15.6788 141.302 13.9404 141.711 12.2098C141.995 12.0682 142.293 11.9502 142.608 11.8558C142.939 11.7614 143.308 11.7142 143.717 11.7142C144.299 11.7142 144.795 11.848 145.204 12.1154C145.613 12.3671 145.818 12.7919 145.818 13.3897C145.818 13.7358 145.731 14.2393 145.558 14.9C145.401 15.5608 145.188 16.3081 144.921 17.1419C144.669 17.96 144.378 18.8174 144.048 19.7142C143.733 20.6109 143.41 21.4605 143.08 22.2628C142.765 23.0495 142.467 23.7495 142.183 24.3631C141.9 24.9609 141.672 25.3779 141.499 25.6138ZM152.019 25.9914C151.846 26.0386 151.571 26.0858 151.193 26.133C150.831 26.1802 150.469 26.2038 150.108 26.2038C149.746 26.2038 149.423 26.1723 149.14 26.1094C148.873 26.0622 148.644 25.9678 148.456 25.8262C148.267 25.6846 148.125 25.488 148.031 25.2363C147.936 24.9845 147.889 24.6542 147.889 24.2451V11.785C148.062 11.7536 148.338 11.7142 148.715 11.667C149.093 11.6041 149.455 11.5726 149.801 11.5726C150.163 11.5726 150.477 11.6041 150.745 11.667C151.028 11.7142 151.264 11.8086 151.453 11.9502C151.641 12.0918 151.783 12.2885 151.877 12.5402C151.972 12.7919 152.019 13.1223 152.019 13.5313V25.9914ZM168.035 25.5902C167.815 25.8105 167.492 25.9757 167.068 26.0858C166.659 26.2117 166.163 26.2746 165.581 26.2746C164.999 26.2746 164.448 26.1881 163.929 26.015C163.41 25.842 162.985 25.4251 162.655 24.7643L160.318 19.9974C160.082 19.5097 159.87 19.0534 159.681 18.6286C159.492 18.1881 159.288 17.6847 159.068 17.1183L158.926 17.1419C158.989 17.9915 159.02 18.8568 159.02 19.7378C159.036 20.6188 159.044 21.4841 159.044 22.3336V25.9914C158.871 26.0386 158.604 26.0858 158.242 26.133C157.896 26.1802 157.549 26.2038 157.203 26.2038C156.857 26.2038 156.55 26.1802 156.283 26.133C156.016 26.0858 155.795 25.9914 155.622 25.8498C155.449 25.7082 155.315 25.5194 155.221 25.2835C155.127 25.0317 155.079 24.7092 155.079 24.3159V12.5166C155.3 12.2019 155.638 11.966 156.094 11.8086C156.55 11.6513 157.038 11.5726 157.557 11.5726C158.139 11.5726 158.69 11.667 159.209 11.8558C159.744 12.0289 160.169 12.4379 160.484 13.083L162.843 17.8499C163.079 18.3376 163.292 18.8017 163.481 19.2422C163.669 19.667 163.874 20.1626 164.094 20.7289L164.212 20.7053C164.149 19.8558 164.11 19.0062 164.094 18.1567C164.078 17.3071 164.071 16.4576 164.071 15.608V11.785C164.244 11.7378 164.503 11.6906 164.849 11.6434C165.211 11.5962 165.565 11.5726 165.911 11.5726C166.603 11.5726 167.131 11.6985 167.492 11.9502C167.854 12.1862 168.035 12.6896 168.035 13.4605V25.5902ZM175.226 25.9914C175.053 26.0386 174.778 26.0858 174.4 26.133C174.038 26.1802 173.676 26.2038 173.314 26.2038C172.953 26.2038 172.63 26.1723 172.347 26.1094C172.079 26.0622 171.851 25.9678 171.663 25.8262C171.474 25.6846 171.332 25.488 171.238 25.2363C171.143 24.9845 171.096 24.6542 171.096 24.2451V11.785C171.269 11.7536 171.545 11.7142 171.922 11.667C172.3 11.6041 172.662 11.5726 173.008 11.5726C173.369 11.5726 173.684 11.6041 173.952 11.667C174.235 11.7142 174.471 11.8086 174.66 11.9502C174.848 12.0918 174.99 12.2885 175.084 12.5402C175.179 12.7919 175.226 13.1223 175.226 13.5313V25.9914ZM177.626 15.0888C177.515 14.9158 177.413 14.6798 177.319 14.3809C177.224 14.082 177.177 13.7673 177.177 13.4369C177.177 12.8234 177.311 12.3829 177.578 12.1154C177.862 11.848 178.223 11.7142 178.664 11.7142H188.953C189.063 11.8873 189.165 12.1233 189.26 12.4222C189.354 12.7211 189.401 13.0358 189.401 13.3661C189.401 13.9797 189.26 14.4202 188.977 14.6877C188.709 14.9551 188.355 15.0888 187.915 15.0888H185.295V25.9914C185.122 26.0386 184.847 26.0858 184.469 26.133C184.107 26.1802 183.746 26.2038 183.384 26.2038C183.022 26.2038 182.699 26.1723 182.416 26.1094C182.149 26.0622 181.921 25.9678 181.732 25.8262C181.543 25.6846 181.401 25.488 181.307 25.2363C181.213 24.9845 181.165 24.6542 181.165 24.2451V15.0888H177.626ZM199.434 25.9914C199.261 26.0386 198.993 26.0858 198.631 26.133C198.27 26.1802 197.916 26.2038 197.569 26.2038C196.846 26.2038 196.303 26.0858 195.941 25.8498C195.579 25.5981 195.398 25.0789 195.398 24.2923V21.1065C195.005 20.5244 194.58 19.8794 194.124 19.1714C193.668 18.4634 193.219 17.7398 192.779 17.0003C192.338 16.2609 191.929 15.5372 191.552 14.8293C191.174 14.1056 190.867 13.4448 190.631 12.847C190.836 12.5638 191.111 12.3042 191.457 12.0682C191.819 11.8322 192.26 11.7142 192.779 11.7142C193.392 11.7142 193.888 11.8401 194.266 12.0918C194.659 12.3435 195.029 12.8155 195.375 13.5077L197.333 17.4487H197.475C197.695 16.961 197.884 16.5205 198.041 16.1272C198.214 15.7181 198.38 15.317 198.537 14.9236C198.694 14.5146 198.859 14.0977 199.033 13.6729C199.206 13.2324 199.402 12.729 199.622 12.1626C199.906 12.021 200.22 11.9109 200.566 11.8322C200.913 11.7536 201.243 11.7142 201.558 11.7142C202.108 11.7142 202.572 11.8637 202.95 12.1626C203.343 12.4458 203.54 12.8784 203.54 13.4605C203.54 13.6493 203.501 13.8774 203.422 14.1449C203.343 14.4123 203.162 14.8214 202.879 15.372C202.596 15.9069 202.179 16.6385 201.628 17.5667C201.093 18.4949 200.362 19.7063 199.434 21.2009V25.9914Z" fill="#2C7BA7"/>
<path d="M66.197 42.3446C66.0998 42.3711 65.9452 42.3976 65.7331 42.4241C65.5299 42.4506 65.3266 42.4639 65.1234 42.4639C64.9202 42.4639 64.739 42.4462 64.58 42.4108C64.4298 42.3843 64.3016 42.3313 64.1956 42.2518C64.0896 42.1723 64.0101 42.0618 63.957 41.9204C63.904 41.7791 63.8775 41.5935 63.8775 41.3638V39.2961H61.3327V42.3446C61.2355 42.3711 61.0809 42.3976 60.8688 42.4241C60.6656 42.4506 60.4624 42.4639 60.2591 42.4639C60.0559 42.4639 59.8748 42.4462 59.7157 42.4108C59.5655 42.3843 59.4374 42.3313 59.3314 42.2518C59.2253 42.1723 59.1458 42.0618 59.0928 41.9204C59.0398 41.7791 59.0133 41.5935 59.0133 41.3638V34.3656C59.1105 34.3479 59.2651 34.3258 59.4772 34.2993C59.6892 34.264 59.8924 34.2463 60.0868 34.2463C60.2901 34.2463 60.4668 34.264 60.617 34.2993C60.7761 34.3258 60.9086 34.3789 61.0146 34.4584C61.1207 34.5379 61.2002 34.6484 61.2532 34.7897C61.3062 34.9311 61.3327 35.1167 61.3327 35.3464V37.4671H63.8775V34.3656C63.9747 34.3479 64.1293 34.3258 64.3414 34.2993C64.5535 34.264 64.7567 34.2463 64.9511 34.2463C65.1543 34.2463 65.331 34.264 65.4813 34.2993C65.6403 34.3258 65.7728 34.3789 65.8789 34.4584C65.9849 34.5379 66.0644 34.6484 66.1175 34.7897C66.1705 34.9311 66.197 35.1167 66.197 35.3464V42.3446ZM67.5207 38.3683C67.5207 37.6791 67.6268 37.0694 67.8388 36.5393C68.0597 36.0091 68.3557 35.5673 68.7269 35.2139C69.1068 34.8516 69.5486 34.5777 70.0523 34.3921C70.5648 34.2066 71.117 34.1138 71.709 34.1138C72.301 34.1138 72.8489 34.2066 73.3525 34.3921C73.865 34.5777 74.3112 34.8516 74.6912 35.2139C75.0711 35.5673 75.3672 36.0091 75.5792 36.5393C75.8001 37.0694 75.9106 37.6791 75.9106 38.3683C75.9106 39.0576 75.8045 39.6717 75.5925 40.2107C75.3804 40.7408 75.0844 41.187 74.7045 41.5493C74.3333 41.9028 73.8915 42.1723 73.379 42.3578C72.8665 42.5434 72.3099 42.6362 71.709 42.6362C71.1082 42.6362 70.5515 42.5434 70.039 42.3578C69.5265 42.1634 69.0847 41.8851 68.7136 41.5228C68.3425 41.1605 68.0509 40.7143 67.8388 40.1841C67.6268 39.654 67.5207 39.0487 67.5207 38.3683ZM69.9065 38.3683C69.9065 39.1724 70.0699 39.7733 70.3969 40.1709C70.7238 40.5685 71.1612 40.7673 71.709 40.7673C72.2657 40.7673 72.7075 40.5685 73.0344 40.1709C73.3614 39.7733 73.5248 39.1724 73.5248 38.3683C73.5248 37.5731 73.3614 36.9767 73.0344 36.579C72.7163 36.1814 72.279 35.9826 71.7223 35.9826C71.1744 35.9826 70.7326 36.1814 70.3969 36.579C70.0699 36.9678 69.9065 37.5643 69.9065 38.3683ZM82.7523 40.4227C82.6374 40.5199 82.4872 40.5994 82.3016 40.6613C82.1249 40.7143 81.9173 40.7408 81.6787 40.7408C81.3606 40.7408 81.0955 40.7011 80.8834 40.6215C80.6802 40.542 80.5477 40.4051 80.4858 40.2107C80.2384 39.4331 80.0352 38.8057 79.8761 38.3286C79.7171 37.8426 79.5934 37.4185 79.505 37.0562H79.4388C79.4122 37.5775 79.3902 38.0547 79.3725 38.4876C79.3636 38.9118 79.3548 39.3271 79.346 39.7335C79.346 40.14 79.3371 40.5508 79.3195 40.9661C79.3106 41.3814 79.293 41.8409 79.2664 42.3446C79.1516 42.3887 79.0014 42.4241 78.8158 42.4506C78.6303 42.4859 78.4447 42.5036 78.2591 42.5036C77.8704 42.5036 77.5655 42.4418 77.3446 42.3181C77.1325 42.1944 77.0265 41.969 77.0265 41.6421L77.4109 34.8825C77.4816 34.7676 77.6362 34.6439 77.8748 34.5114C78.1133 34.3789 78.4491 34.3126 78.8821 34.3126C79.3504 34.3126 79.7171 34.3877 79.9822 34.5379C80.2473 34.6793 80.4416 34.9134 80.5654 35.2404C80.6449 35.4524 80.7288 35.6954 80.8172 35.9693C80.9144 36.2433 81.0072 36.526 81.0955 36.8176C81.1927 37.1092 81.2855 37.4008 81.3739 37.6924C81.4622 37.9751 81.5417 38.2314 81.6124 38.4611H81.6787C81.8908 37.7189 82.1028 37.0032 82.3149 36.314C82.527 35.6159 82.7214 35.0327 82.8981 34.5644C83.0306 34.4937 83.1985 34.4363 83.4017 34.3921C83.6138 34.3391 83.8479 34.3126 84.1042 34.3126C84.5372 34.3126 84.8906 34.3789 85.1645 34.5114C85.4384 34.6351 85.5975 34.8162 85.6417 35.0548C85.677 35.2315 85.7124 35.5055 85.7477 35.8766C85.7919 36.2388 85.8361 36.6497 85.8802 37.1092C85.9244 37.5687 85.9686 38.0547 86.0128 38.5671C86.057 39.0796 86.0967 39.5745 86.1321 40.0516C86.1763 40.5199 86.2116 40.9529 86.2381 41.3505C86.2646 41.7393 86.2823 42.0397 86.2911 42.2518C86.1409 42.3401 85.9819 42.402 85.814 42.4373C85.6549 42.4815 85.4473 42.5036 85.191 42.5036C84.8553 42.5036 84.5725 42.4462 84.3428 42.3313C84.113 42.2164 83.9893 41.9911 83.9717 41.6554C83.9186 40.6922 83.8833 39.8263 83.8656 39.0576C83.8568 38.2888 83.8391 37.6438 83.8126 37.1225H83.7463C83.658 37.4671 83.5299 37.9 83.362 38.4214C83.1941 38.9427 82.9909 39.6098 82.7523 40.4227ZM87.7607 35.5982C87.7607 35.2183 87.8711 34.9179 88.092 34.697C88.3129 34.4761 88.6133 34.3656 88.9933 34.3656H93.3672C93.429 34.4628 93.482 34.5909 93.5262 34.75C93.5792 34.909 93.6057 35.0769 93.6057 35.2536C93.6057 35.5894 93.5306 35.828 93.3804 35.9693C93.239 36.1107 93.0491 36.1814 92.8105 36.1814H90.0139V37.414H92.996C93.0579 37.5112 93.1109 37.6394 93.1551 37.7984C93.2081 37.9486 93.2346 38.1121 93.2346 38.2888C93.2346 38.6246 93.1639 38.8632 93.0225 39.0045C92.8812 39.1459 92.6912 39.2166 92.4526 39.2166H90.0139V40.6083H93.4202C93.482 40.7055 93.535 40.8336 93.5792 40.9926C93.6322 41.1517 93.6587 41.3196 93.6587 41.4963C93.6587 41.8321 93.5836 42.0751 93.4334 42.2253C93.292 42.3667 93.1021 42.4373 92.8635 42.4373H88.9933C88.6133 42.4373 88.3129 42.3269 88.092 42.106C87.8711 41.8851 87.7607 41.5847 87.7607 41.2047V35.5982ZM104.859 42.3446C104.762 42.3711 104.607 42.3976 104.395 42.4241C104.192 42.4506 103.989 42.4639 103.785 42.4639C103.582 42.4639 103.401 42.4462 103.242 42.4108C103.092 42.3843 102.964 42.3313 102.858 42.2518C102.752 42.1723 102.672 42.0618 102.619 41.9204C102.566 41.7791 102.54 41.5935 102.54 41.3638V39.2961H99.9948V42.3446C99.8976 42.3711 99.743 42.3976 99.5309 42.4241C99.3277 42.4506 99.1245 42.4639 98.9212 42.4639C98.718 42.4639 98.5369 42.4462 98.3778 42.4108C98.2276 42.3843 98.0995 42.3313 97.9935 42.2518C97.8874 42.1723 97.8079 42.0618 97.7549 41.9204C97.7019 41.7791 97.6754 41.5935 97.6754 41.3638V34.3656C97.7726 34.3479 97.9272 34.3258 98.1392 34.2993C98.3513 34.264 98.5545 34.2463 98.7489 34.2463C98.9522 34.2463 99.1289 34.264 99.2791 34.2993C99.4382 34.3258 99.5707 34.3789 99.6767 34.4584C99.7828 34.5379 99.8623 34.6484 99.9153 34.7897C99.9683 34.9311 99.9948 35.1167 99.9948 35.3464V37.4671H102.54V34.3656C102.637 34.3479 102.791 34.3258 103.004 34.2993C103.216 34.264 103.419 34.2463 103.613 34.2463C103.816 34.2463 103.993 34.264 104.143 34.2993C104.302 34.3258 104.435 34.3789 104.541 34.4584C104.647 34.5379 104.727 34.6484 104.78 34.7897C104.833 34.9311 104.859 35.1167 104.859 35.3464V42.3446ZM106.58 35.5982C106.58 35.2183 106.691 34.9179 106.912 34.697C107.133 34.4761 107.433 34.3656 107.813 34.3656H112.187C112.249 34.4628 112.302 34.5909 112.346 34.75C112.399 34.909 112.426 35.0769 112.426 35.2536C112.426 35.5894 112.35 35.828 112.2 35.9693C112.059 36.1107 111.869 36.1814 111.63 36.1814H108.834V37.414H111.816C111.878 37.5112 111.931 37.6394 111.975 37.7984C112.028 37.9486 112.054 38.1121 112.054 38.2888C112.054 38.6246 111.984 38.8632 111.842 39.0045C111.701 39.1459 111.511 39.2166 111.272 39.2166H108.834V40.6083H112.24C112.302 40.7055 112.355 40.8336 112.399 40.9926C112.452 41.1517 112.479 41.3196 112.479 41.4963C112.479 41.8321 112.403 42.0751 112.253 42.2253C112.112 42.3667 111.922 42.4373 111.683 42.4373H107.813C107.433 42.4373 107.133 42.3269 106.912 42.106C106.691 41.8851 106.58 41.5847 106.58 41.2047V35.5982ZM115.72 34.6042C115.87 34.5158 116.095 34.4319 116.396 34.3523C116.705 34.2728 117.014 34.2331 117.324 34.2331C117.765 34.2331 118.154 34.2993 118.49 34.4319C118.834 34.5556 119.055 34.7544 119.153 35.0283C119.312 35.4878 119.484 36.0224 119.669 36.6321C119.855 37.2417 120.041 37.8735 120.226 38.5274C120.412 39.1724 120.593 39.813 120.77 40.4492C120.946 41.0766 121.101 41.6333 121.233 42.1192C121.127 42.243 120.968 42.3401 120.756 42.4108C120.544 42.4904 120.292 42.5301 120.001 42.5301C119.789 42.5301 119.608 42.5125 119.457 42.4771C119.316 42.4418 119.197 42.3887 119.1 42.3181C119.011 42.2474 118.936 42.1546 118.874 42.0397C118.821 41.9249 118.773 41.7923 118.728 41.6421L118.49 40.7276H116.091C116.02 40.9926 115.95 41.2666 115.879 41.5493C115.808 41.8321 115.737 42.106 115.667 42.3711C115.543 42.4153 115.411 42.4506 115.269 42.4771C115.137 42.5125 114.973 42.5301 114.779 42.5301C114.328 42.5301 113.992 42.455 113.771 42.3048C113.559 42.1458 113.453 41.9293 113.453 41.6554C113.453 41.5316 113.471 41.4079 113.506 41.2842C113.542 41.1605 113.581 41.0147 113.626 40.8469C113.687 40.6083 113.771 40.3123 113.877 39.9588C113.992 39.6054 114.116 39.2254 114.249 38.819C114.381 38.4037 114.522 37.9796 114.673 37.5466C114.823 37.1136 114.964 36.7072 115.097 36.3272C115.229 35.9384 115.349 35.5938 115.455 35.2934C115.57 34.993 115.658 34.7632 115.72 34.6042ZM117.31 36.314C117.187 36.6851 117.045 37.1004 116.886 37.5598C116.736 38.0105 116.599 38.47 116.475 38.9383H118.119C117.995 38.4611 117.867 37.9972 117.734 37.5466C117.611 37.0871 117.496 36.6762 117.39 36.314H117.31ZM123.552 42.4373C123.172 42.4373 122.872 42.3269 122.651 42.106C122.43 41.8851 122.32 41.5847 122.32 41.2047V34.3523C122.417 34.3347 122.572 34.3126 122.784 34.2861C122.996 34.2507 123.199 34.2331 123.393 34.2331C123.596 34.2331 123.773 34.2507 123.923 34.2861C124.082 34.3126 124.215 34.3656 124.321 34.4451C124.427 34.5246 124.507 34.6351 124.56 34.7765C124.613 34.9179 124.639 35.1034 124.639 35.3331V40.5685H127.674C127.736 40.6657 127.794 40.7983 127.847 40.9661C127.9 41.1252 127.926 41.2931 127.926 41.4698C127.926 41.8232 127.851 42.0751 127.701 42.2253C127.551 42.3667 127.352 42.4373 127.104 42.4373H123.552ZM127.954 36.2212C127.892 36.124 127.835 35.9914 127.782 35.8236C127.729 35.6557 127.703 35.4789 127.703 35.2934C127.703 34.9488 127.778 34.7014 127.928 34.5512C128.087 34.4009 128.29 34.3258 128.538 34.3258H134.316C134.378 34.423 134.436 34.5556 134.489 34.7235C134.542 34.8913 134.568 35.0681 134.568 35.2536C134.568 35.5982 134.489 35.8456 134.33 35.9959C134.179 36.1461 133.981 36.2212 133.733 36.2212H132.262V42.3446C132.165 42.3711 132.01 42.3976 131.798 42.4241C131.595 42.4506 131.392 42.4639 131.188 42.4639C130.985 42.4639 130.804 42.4462 130.645 42.4108C130.495 42.3843 130.367 42.3313 130.261 42.2518C130.155 42.1723 130.075 42.0618 130.022 41.9204C129.969 41.7791 129.942 41.5935 129.942 41.3638V36.2212H127.954ZM142.874 42.3446C142.777 42.3711 142.622 42.3976 142.41 42.4241C142.207 42.4506 142.004 42.4639 141.8 42.4639C141.597 42.4639 141.416 42.4462 141.257 42.4108C141.107 42.3843 140.979 42.3313 140.873 42.2518C140.767 42.1723 140.687 42.0618 140.634 41.9204C140.581 41.7791 140.555 41.5935 140.555 41.3638V39.2961H138.01V42.3446C137.913 42.3711 137.758 42.3976 137.546 42.4241C137.343 42.4506 137.139 42.4639 136.936 42.4639C136.733 42.4639 136.552 42.4462 136.393 42.4108C136.243 42.3843 136.114 42.3313 136.008 42.2518C135.902 42.1723 135.823 42.0618 135.77 41.9204C135.717 41.7791 135.69 41.5935 135.69 41.3638V34.3656C135.787 34.3479 135.942 34.3258 136.154 34.2993C136.366 34.264 136.569 34.2463 136.764 34.2463C136.967 34.2463 137.144 34.264 137.294 34.2993C137.453 34.3258 137.586 34.3789 137.692 34.4584C137.798 34.5379 137.877 34.6484 137.93 34.7897C137.983 34.9311 138.01 35.1167 138.01 35.3464V37.4671H140.555V34.3656C140.652 34.3479 140.806 34.3258 141.018 34.2993C141.23 34.264 141.434 34.2463 141.628 34.2463C141.831 34.2463 142.008 34.264 142.158 34.2993C142.317 34.3258 142.45 34.3789 142.556 34.4584C142.662 34.5379 142.741 34.6484 142.794 34.7897C142.847 34.9311 142.874 35.1167 142.874 35.3464V42.3446ZM149.528 39.2033C149.14 39.0708 148.786 38.9383 148.468 38.8057C148.15 38.6643 147.876 38.4965 147.646 38.3021C147.417 38.1077 147.236 37.8779 147.103 37.6129C146.979 37.3389 146.917 37.0076 146.917 36.6188C146.917 35.8677 147.205 35.2669 147.779 34.8162C148.362 34.3656 149.175 34.1403 150.218 34.1403C150.598 34.1403 150.951 34.1668 151.278 34.2198C151.605 34.2728 151.883 34.3568 152.113 34.4716C152.352 34.5777 152.537 34.719 152.67 34.8958C152.802 35.0636 152.869 35.2625 152.869 35.4922C152.869 35.7219 152.816 35.9207 152.709 36.0886C152.603 36.2477 152.475 36.3846 152.325 36.4995C152.131 36.3758 151.87 36.2698 151.543 36.1814C151.216 36.0842 150.858 36.0356 150.47 36.0356C150.072 36.0356 149.78 36.0931 149.595 36.2079C149.409 36.314 149.316 36.4509 149.316 36.6188C149.316 36.7513 149.374 36.8618 149.489 36.9501C149.604 37.0297 149.776 37.1048 150.006 37.1755L150.708 37.4008C151.539 37.6659 152.175 38.0061 152.617 38.4214C153.067 38.8278 153.293 39.3845 153.293 40.0914C153.293 40.8424 152.997 41.4521 152.405 41.9204C151.813 42.3799 150.942 42.6096 149.794 42.6096C149.387 42.6096 149.007 42.5743 148.654 42.5036C148.309 42.4418 148.004 42.349 147.739 42.2253C147.483 42.0927 147.28 41.9337 147.129 41.7481C146.988 41.5537 146.917 41.3328 146.917 41.0854C146.917 40.8292 146.993 40.6127 147.143 40.436C147.293 40.2504 147.456 40.109 147.633 40.0118C147.881 40.2062 148.181 40.3741 148.534 40.5155C148.897 40.6569 149.29 40.7276 149.714 40.7276C150.147 40.7276 150.452 40.6613 150.629 40.5288C150.805 40.3962 150.894 40.2416 150.894 40.0649C150.894 39.8881 150.823 39.7556 150.682 39.6672C150.54 39.57 150.341 39.4773 150.085 39.3889L149.528 39.2033ZM154.549 35.5982C154.549 35.2183 154.659 34.9179 154.88 34.697C155.101 34.4761 155.402 34.3656 155.782 34.3656H160.155C160.217 34.4628 160.27 34.5909 160.314 34.75C160.367 34.909 160.394 35.0769 160.394 35.2536C160.394 35.5894 160.319 35.828 160.169 35.9693C160.027 36.1107 159.837 36.1814 159.599 36.1814H156.802V37.414H159.784C159.846 37.5112 159.899 37.6394 159.943 37.7984C159.996 37.9486 160.023 38.1121 160.023 38.2888C160.023 38.6246 159.952 38.8632 159.811 39.0045C159.669 39.1459 159.479 39.2166 159.241 39.2166H156.802V40.6083H160.208C160.27 40.7055 160.323 40.8336 160.367 40.9926C160.42 41.1517 160.447 41.3196 160.447 41.4963C160.447 41.8321 160.372 42.0751 160.222 42.2253C160.08 42.3667 159.89 42.4373 159.652 42.4373H155.782C155.402 42.4373 155.101 42.3269 154.88 42.106C154.659 41.8851 154.549 41.5847 154.549 41.2047V35.5982ZM164.116 39.7998V42.3446C164.019 42.3711 163.865 42.3976 163.652 42.4241C163.449 42.4506 163.246 42.4639 163.043 42.4639C162.84 42.4639 162.658 42.4462 162.499 42.4108C162.349 42.3843 162.221 42.3313 162.115 42.2518C162.018 42.1723 161.943 42.0618 161.89 41.9204C161.837 41.7791 161.81 41.5935 161.81 41.3638V35.1211C161.81 34.9355 161.859 34.7941 161.956 34.697C162.062 34.5909 162.203 34.507 162.38 34.4451C162.681 34.3391 163.03 34.264 163.427 34.2198C163.825 34.1668 164.249 34.1403 164.7 34.1403C165.919 34.1403 166.838 34.3965 167.456 34.909C168.075 35.4215 168.384 36.1151 168.384 36.9899C168.384 37.5377 168.243 38.0061 167.96 38.3948C167.677 38.7836 167.342 39.0841 166.953 39.2961C167.271 39.7291 167.585 40.1356 167.894 40.5155C168.203 40.8955 168.446 41.2401 168.623 41.5493C168.534 41.8586 168.371 42.0972 168.132 42.265C167.903 42.4241 167.642 42.5036 167.35 42.5036C167.156 42.5036 166.988 42.4815 166.847 42.4373C166.705 42.3932 166.582 42.3313 166.476 42.2518C166.37 42.1723 166.272 42.0751 166.184 41.9602C166.096 41.8453 166.012 41.7216 165.932 41.5891L164.819 39.7998H164.116ZM164.951 38.037C165.287 38.037 165.552 37.953 165.747 37.7852C165.941 37.6084 166.038 37.3522 166.038 37.0164C166.038 36.6806 165.928 36.4288 165.707 36.2609C165.495 36.0842 165.155 35.9959 164.686 35.9959C164.554 35.9959 164.448 36.0003 164.368 36.0091C164.289 36.0179 164.2 36.0312 164.103 36.0489V38.037H164.951ZM174.491 42.1325C174.367 42.2385 174.173 42.3313 173.908 42.4108C173.652 42.4904 173.369 42.5301 173.06 42.5301C172.688 42.5301 172.37 42.4771 172.105 42.3711C171.84 42.2562 171.659 42.1016 171.562 41.9072C171.465 41.704 171.345 41.4433 171.204 41.1252C171.063 40.7983 170.912 40.436 170.753 40.0384C170.603 39.6407 170.444 39.221 170.276 38.7792C170.117 38.3286 169.963 37.8735 169.812 37.414C169.662 36.9546 169.521 36.5039 169.388 36.0621C169.256 35.6203 169.141 35.205 169.044 34.8162C169.167 34.6925 169.344 34.5821 169.574 34.4849C169.812 34.3789 170.064 34.3258 170.329 34.3258C170.656 34.3258 170.921 34.3965 171.124 34.5379C171.337 34.6704 171.491 34.9223 171.588 35.2934C171.827 36.1593 172.066 36.9899 172.304 37.7852C172.552 38.5716 172.808 39.3933 173.073 40.2504H173.152C173.391 39.4198 173.634 38.5141 173.881 37.5333C174.138 36.5525 174.381 35.5761 174.61 34.6042C174.769 34.5246 174.937 34.4584 175.114 34.4054C175.3 34.3523 175.507 34.3258 175.737 34.3258C176.064 34.3258 176.342 34.4009 176.572 34.5512C176.802 34.6925 176.917 34.9311 176.917 35.2669C176.917 35.4613 176.868 35.744 176.771 36.1151C176.682 36.4863 176.563 36.906 176.413 37.3743C176.271 37.8338 176.108 38.3153 175.922 38.819C175.746 39.3226 175.565 39.7998 175.379 40.2504C175.202 40.6922 175.034 41.0854 174.875 41.43C174.716 41.7658 174.588 42 174.491 42.1325ZM180.4 42.3446C180.302 42.3711 180.148 42.3976 179.936 42.4241C179.732 42.4506 179.529 42.4639 179.326 42.4639C179.123 42.4639 178.942 42.4462 178.783 42.4108C178.632 42.3843 178.504 42.3313 178.398 42.2518C178.292 42.1723 178.213 42.0618 178.16 41.9204C178.107 41.7791 178.08 41.5935 178.08 41.3638V34.3656C178.177 34.3479 178.332 34.3258 178.544 34.2993C178.756 34.264 178.959 34.2463 179.154 34.2463C179.357 34.2463 179.534 34.264 179.684 34.2993C179.843 34.3258 179.975 34.3789 180.081 34.4584C180.187 34.5379 180.267 34.6484 180.32 34.7897C180.373 34.9311 180.4 35.1167 180.4 35.3464V42.3446ZM186.214 35.9826C185.534 35.9826 185.012 36.1902 184.65 36.6055C184.288 37.0208 184.107 37.6084 184.107 38.3683C184.107 39.1371 184.305 39.7291 184.703 40.1444C185.109 40.5597 185.653 40.7673 186.333 40.7673C186.696 40.7673 187 40.7187 187.248 40.6215C187.504 40.5243 187.747 40.4139 187.977 40.2902C188.127 40.4139 188.242 40.5641 188.321 40.7408C188.41 40.9087 188.454 41.1075 188.454 41.3373C188.454 41.6995 188.251 42.0088 187.844 42.265C187.447 42.5125 186.837 42.6362 186.015 42.6362C185.423 42.6362 184.866 42.5522 184.345 42.3843C183.824 42.2164 183.369 41.9602 182.98 41.6156C182.591 41.2621 182.282 40.8203 182.052 40.2902C181.831 39.7512 181.721 39.1106 181.721 38.3683C181.721 37.6791 181.827 37.0739 182.039 36.5525C182.26 36.0224 182.556 35.5761 182.927 35.2139C183.307 34.8516 183.749 34.5777 184.252 34.3921C184.756 34.2066 185.295 34.1138 185.869 34.1138C186.682 34.1138 187.31 34.2463 187.751 34.5114C188.202 34.7765 188.427 35.1167 188.427 35.532C188.427 35.7617 188.37 35.9605 188.255 36.1284C188.14 36.2963 188.008 36.4288 187.857 36.526C187.628 36.3758 187.38 36.2477 187.115 36.1416C186.859 36.0356 186.559 35.9826 186.214 35.9826ZM189.69 35.5982C189.69 35.2183 189.801 34.9179 190.022 34.697C190.243 34.4761 190.543 34.3656 190.923 34.3656H195.297C195.359 34.4628 195.412 34.5909 195.456 34.75C195.509 34.909 195.535 35.0769 195.535 35.2536C195.535 35.5894 195.46 35.828 195.31 35.9693C195.169 36.1107 194.979 36.1814 194.74 36.1814H191.944V37.414H194.926C194.988 37.5112 195.041 37.6394 195.085 37.7984C195.138 37.9486 195.164 38.1121 195.164 38.2888C195.164 38.6246 195.094 38.8632 194.952 39.0045C194.811 39.1459 194.621 39.2166 194.382 39.2166H191.944V40.6083H195.35C195.412 40.7055 195.465 40.8336 195.509 40.9926C195.562 41.1517 195.588 41.3196 195.588 41.4963C195.588 41.8321 195.513 42.0751 195.363 42.2253C195.222 42.3667 195.032 42.4373 194.793 42.4373H190.923C190.543 42.4373 190.243 42.3269 190.022 42.106C189.801 41.8851 189.69 41.5847 189.69 41.2047V35.5982ZM199.296 39.2033C198.907 39.0708 198.554 38.9383 198.236 38.8057C197.918 38.6643 197.644 38.4965 197.414 38.3021C197.184 38.1077 197.003 37.8779 196.871 37.6129C196.747 37.3389 196.685 37.0076 196.685 36.6188C196.685 35.8677 196.972 35.2669 197.547 34.8162C198.13 34.3656 198.943 34.1403 199.985 34.1403C200.365 34.1403 200.719 34.1668 201.046 34.2198C201.373 34.2728 201.651 34.3568 201.881 34.4716C202.119 34.5777 202.305 34.719 202.437 34.8958C202.57 35.0636 202.636 35.2625 202.636 35.4922C202.636 35.7219 202.583 35.9207 202.477 36.0886C202.371 36.2477 202.243 36.3846 202.093 36.4995C201.898 36.3758 201.638 36.2698 201.311 36.1814C200.984 36.0842 200.626 36.0356 200.237 36.0356C199.839 36.0356 199.548 36.0931 199.362 36.2079C199.177 36.314 199.084 36.4509 199.084 36.6188C199.084 36.7513 199.141 36.8618 199.256 36.9501C199.371 37.0297 199.543 37.1048 199.773 37.1755L200.476 37.4008C201.306 37.6659 201.942 38.0061 202.384 38.4214C202.835 38.8278 203.06 39.3845 203.06 40.0914C203.06 40.8424 202.764 41.4521 202.172 41.9204C201.58 42.3799 200.71 42.6096 199.561 42.6096C199.155 42.6096 198.775 42.5743 198.421 42.5036C198.077 42.4418 197.772 42.349 197.507 42.2253C197.251 42.0927 197.047 41.9337 196.897 41.7481C196.756 41.5537 196.685 41.3328 196.685 41.0854C196.685 40.8292 196.76 40.6127 196.91 40.436C197.061 40.2504 197.224 40.109 197.401 40.0118C197.648 40.2062 197.949 40.3741 198.302 40.5155C198.664 40.6569 199.057 40.7276 199.482 40.7276C199.915 40.7276 200.219 40.6613 200.396 40.5288C200.573 40.3962 200.661 40.2416 200.661 40.0649C200.661 39.8881 200.591 39.7556 200.449 39.6672C200.308 39.57 200.109 39.4773 199.853 39.3889L199.296 39.2033Z" fill="url(#paint6_linear_220_383)"/>
<defs>
<linearGradient id="paint0_linear_220_383" x1="25" y1="0" x2="25" y2="50" gradientUnits="userSpaceOnUse">
<stop stop-color="#2C7BA7"/>
<stop offset="1" stop-color="#11DCD0"/>
</linearGradient>
<linearGradient id="paint1_linear_220_383" x1="25" y1="0" x2="25" y2="50" gradientUnits="userSpaceOnUse">
<stop stop-color="#2C7BA7"/>
<stop offset="1" stop-color="#11DCD0"/>
</linearGradient>
<linearGradient id="paint2_linear_220_383" x1="24.9887" y1="0.66333" x2="24.9887" y2="49.3141" gradientUnits="userSpaceOnUse">
<stop stop-color="#2C7BA7"/>
<stop offset="1" stop-color="#11DCD0"/>
</linearGradient>
<linearGradient id="paint3_linear_220_383" x1="25" y1="1.16089" x2="25" y2="48.8392" gradientUnits="userSpaceOnUse">
<stop stop-color="#2C7BA7"/>
<stop offset="1" stop-color="#11DCD0"/>
</linearGradient>
<linearGradient id="paint4_linear_220_383" x1="25.1658" y1="30.6384" x2="25.2487" y2="8.08455" gradientUnits="userSpaceOnUse">
<stop stop-color="#11DCD0"/>
<stop offset="1" stop-color="#2C7BA7"/>
</linearGradient>
<linearGradient id="paint5_linear_220_383" x1="25.2073" y1="17.7446" x2="25.2073" y2="60.5307" gradientUnits="userSpaceOnUse">
<stop stop-color="#2C7BA7"/>
<stop offset="1" stop-color="#11DCD0"/>
</linearGradient>
<linearGradient id="paint6_linear_220_383" x1="130.803" y1="28.3976" x2="130.803" y2="49.3976" gradientUnits="userSpaceOnUse">
<stop stop-color="#2C7BA7"/>
<stop offset="1" stop-color="#11DCD0" stop-opacity="0.5"/>
</linearGradient>
</defs>
</svg>
